<?xml version="1.0" encoding="iso-8859-1"?>
<!-- Generator: Adobe Illustrator 17.1.0, SVG Export Plug-In . SVG Version: 6.00 Build 0)  -->
<!DOCTYPE svg PUBLIC "-//W3C//DTD SVG 1.1//EN" "http://www.w3.org/Graphics/SVG/1.1/DTD/svg11.dtd">
<svg xmlns="http://www.w3.org/2000/svg" xmlns:xlink="http://www.w3.org/1999/xlink" version="1.1" id="Capa_1" x="0px" y="0px" viewBox="0 0 93.792 93.792" style="enable-background:new 0 0 93.792 93.792;" xml:space="preserve" width="512px" height="512px">
<g>
	<path d="M39.782,23.456c5.975,0,10.835-4.861,10.835-10.836S45.757,1.784,39.782,1.784c-5.975,0-10.836,4.861-10.836,10.836   S33.807,23.456,39.782,23.456z" fill="#FFDA44"/>
	<path d="M81.135,0.411c-0.877-0.671-2.132-0.503-2.804,0.373L67.436,15.027c-1.151-0.384-2.532-0.078-3.331,0.861l-5.545,6.518   c-0.575,0.676-1.838,1.437-2.704,1.629l-8.837,1.963H34.64l-9.206-5.626c-0.737-0.45-1.605-1.569-1.858-2.395l-3.86-12.599   c-0.363-1.187-1.423-1.984-2.636-1.984c-0.388,0-0.771,0.08-1.138,0.238l-2.066,0.891c-1.473,0.635-2.308,2.348-1.901,3.898   L15.191,20.7c0.33,1.26,1.376,2.896,2.381,3.725l10.794,8.901v25.796v0.503v29.166c0,2.757,2.243,5,5,5h0.351c2.757,0,5-2.243,5-5   V62.626h2.127v26.166c0,2.757,2.243,5,5,5h0.352c2.757,0,5-2.243,5-5V59.626v-0.503V34.871l9.146-2.514   c1.265-0.348,2.876-1.44,3.667-2.486l6.568-8.684c0.831-1.098,0.793-2.618,0.007-3.692L81.508,3.215   C82.18,2.338,82.012,1.082,81.135,0.411z" fill="#FFDA44"/>
</g>
<g>
</g>
<g>
</g>
<g>
</g>
<g>
</g>
<g>
</g>
<g>
</g>
<g>
</g>
<g>
</g>
<g>
</g>
<g>
</g>
<g>
</g>
<g>
</g>
<g>
</g>
<g>
</g>
<g>
</g>
</svg>
