<?xml version="1.0" encoding="iso-8859-1"?>
<!-- Generator: Adobe Illustrator 18.0.0, SVG Export Plug-In . SVG Version: 6.00 Build 0)  -->
<!DOCTYPE svg PUBLIC "-//W3C//DTD SVG 1.1//EN" "http://www.w3.org/Graphics/SVG/1.1/DTD/svg11.dtd">
<svg xmlns="http://www.w3.org/2000/svg" xmlns:xlink="http://www.w3.org/1999/xlink" version="1.1" id="Capa_1" x="0px" y="0px" viewBox="0 0 460.068 460.068" style="enable-background:new 0 0 460.068 460.068;" xml:space="preserve" width="512px" height="512px">
<g id="XMLID_1017_">
	<path id="XMLID_1024_" d="M267.992,42.971h37.514c0.225-1.671,0.352-3.372,0.352-5.104C305.858,16.953,288.905,0,267.992,0   c-20.913,0-37.867,16.953-37.867,37.866c0,9.656,3.62,18.464,9.57,25.152C243.811,51.355,254.938,42.971,267.992,42.971z" fill="#FFDA44"/>
	<path id="XMLID_1059_" d="M345.368,127.959l23.284,2.844c7.921,0.966,15.508-3.312,18.814-10.502l7.97-17.33h-25.055   L345.368,127.959z" fill="#FFDA44"/>
	<path id="XMLID_1060_" d="M407.167,33.734c-9.171-4.218-20.018-0.202-24.233,8.966l-0.125,0.271h33.426   C414.498,39.028,411.388,35.674,407.167,33.734z" fill="#FFDA44"/>
	<path id="XMLID_1066_" d="M257.992,72.971c0,5.522,4.477,10,10,10h24.779l20.02-20h-44.799   C262.47,62.971,257.992,67.448,257.992,72.971z" fill="#FFDA44"/>
	<path id="XMLID_1067_" d="M424.867,62.971h-47.52c3.072,6.252,4.141,13.237,3.198,20h44.321c5.522,0,10-4.478,10-10   S430.39,62.971,424.867,62.971z" fill="#FFDA44"/>
	<path id="XMLID_1068_" d="M300.712,172.57c-11.171,11.161-30.055,10.04-39.634-3.545l-32.068-46.128l42.15,33.411   c7.261,5.756,17.695,5.167,24.263-1.393l63.872-63.81c7.139-7.132,7.145-18.7,0.013-25.839c-7.131-7.139-18.7-7.145-25.839-0.013   l-52.36,52.31c-21.607-16.68-34.241-28.563-42.136-29.662c-11.893-1.149-21.596,9.129-19.818,20.9l0.009,329.341   c0,12.108,9.816,21.925,21.925,21.925s21.925-9.816,21.925-21.925V262.896c0,0,0,0,0-0.001h9.466c0,0.001,0,0.001,0,0.001v175.247   c0,12.108,9.816,21.925,21.925,21.925s21.925-9.816,21.925-21.925l-0.398-280.775C303.279,170.007,308.59,164.7,300.712,172.57z" fill="#FFDA44"/>
	<path id="XMLID_1071_" d="M149.282,70.665c-1.203-0.842-2.74-1.045-4.12-0.543L98.2,87.198v-5.472c0-5.522-4.478-10-10-10   s-10,4.478-10,10v5.472L31.239,70.121c-1.38-0.502-2.917-0.299-4.12,0.543c-1.202,0.842-1.918,2.218-1.918,3.686v87.846   c0,1.893,1.184,3.583,2.962,4.229L78.2,184.622v195.806L36.18,444.587c-3.026,4.62-1.733,10.818,2.887,13.844   c4.621,3.027,10.819,1.734,13.844-2.887l25.29-38.613v13.665c0,5.523,4.478,10,10,10s10-4.477,10-10v-13.665l25.29,38.613   c3.025,4.62,9.222,5.913,13.844,2.887c4.62-3.025,5.913-9.224,2.887-13.844L98.2,380.428V184.622l50.038-18.196   c1.778-0.646,2.962-2.337,2.962-4.229V74.351C151.2,72.883,150.484,71.507,149.282,70.665z" fill="#FFDA44"/>
</g>
<g>
</g>
<g>
</g>
<g>
</g>
<g>
</g>
<g>
</g>
<g>
</g>
<g>
</g>
<g>
</g>
<g>
</g>
<g>
</g>
<g>
</g>
<g>
</g>
<g>
</g>
<g>
</g>
<g>
</g>
</svg>
