<?xml version="1.0" encoding="iso-8859-1"?>
<!-- Generator: Adobe Illustrator 16.0.0, SVG Export Plug-In . SVG Version: 6.00 Build 0)  -->
<!DOCTYPE svg PUBLIC "-//W3C//DTD SVG 1.1//EN" "http://www.w3.org/Graphics/SVG/1.1/DTD/svg11.dtd">
<svg version="1.1" id="Capa_1" xmlns="http://www.w3.org/2000/svg" xmlns:xlink="http://www.w3.org/1999/xlink" x="0px" y="0px"
	 width="440.012px" height="440.011px" viewBox="0 0 440.012 440.011" style="enable-background:new 0 0 440.012 440.011;"
	 xml:space="preserve">
<g>
	<path d="M295.527,345.91c45.316,0,82.061-50.967,82.061-113.831c0-62.865-36.744-113.819-82.061-113.819
		c-42.519,0-77.487,44.879-81.631,102.365c-9.416-7.698-18.983-16.955-26.487-25.142c11.335-15.663,48.98-71.903,56.154-137.178
		l-37.069-37.101c0.541-1.615,0.908-3.312,0.908-5.118C207.402,7.208,200.203,0,191.318,0c-8.888,0-16.096,7.208-16.096,16.086
		c0,8.884,7.208,16.083,16.096,16.083c2.645,0,5.094-0.697,7.298-1.829l23.379,25.587c-4.937,44.925-26.429,86.282-41.008,109.912
		L176.922,146c13.699-13.274,18.494-35.704,10.391-56.805c-10.429-27.162-38.212-41.763-62.063-32.6
		c-23.85,9.153-34.722,38.607-24.291,65.77c7.834,20.404,25.459,33.708,43.843,35.191l29.623,144.384
		c0.024,6.893-1.076,45.163-27.469,52.646c-42.995,12.166-82.854,28.044-84.532,28.721l12.543,31.37
		c0.393-0.152,39.952-15.909,81.183-27.583c26.323-7.453,39.379-27.254,45.829-46.189l101.031,99.107l23.659-24.108l-118.511-116.26
		c-0.008-0.176-0.016-0.341-0.016-0.425l-0.064-1.286l-13.313-64.92c6.13,5.321,12.788,10.552,19.603,14.875
		C219.926,303.254,254.099,345.91,295.527,345.91z M286.483,139.974c29.438,0,53.294,41.046,53.294,91.704
		c0,50.654-23.864,91.706-53.294,91.706c-24.229,0-44.635-27.827-51.123-65.914c2.777,0.682,5.522,1.15,8.159,1.15
		c0.292,0,0.581,0,0.873,0c27.087-0.874,52.161-14.72,53.143-15.221v-46.606c1.551-0.698,2.821-1.595,4.14-2.817
		c6.496-6.051,6.857-16.244,0.798-22.742c-6.063-6.5-16.246-6.853-22.738-0.801c-6.5,6.061-6.853,16.242-0.798,22.742
		c1.796,1.939,3.988,3.252,6.32,4.091l0.272,28.877c-1.775,0.897-20.582,10.083-41.825,10.764c-2.838,0.093-6.424-1.09-10.452-3.098
		c-0.008-0.721-0.06-1.41-0.06-2.136C233.192,181.032,257.048,139.974,286.483,139.974z" fill="#FC3"/>
</g>
<g>
</g>
<g>
</g>
<g>
</g>
<g>
</g>
<g>
</g>
<g>
</g>
<g>
</g>
<g>
</g>
<g>
</g>
<g>
</g>
<g>
</g>
<g>
</g>
<g>
</g>
<g>
</g>
<g>
</g>
</svg>
