<?xml version="1.0" encoding="iso-8859-1"?>
<!-- Generator: Adobe Illustrator 18.0.0, SVG Export Plug-In . SVG Version: 6.00 Build 0)  -->
<!DOCTYPE svg PUBLIC "-//W3C//DTD SVG 1.1//EN" "http://www.w3.org/Graphics/SVG/1.1/DTD/svg11.dtd">
<svg version="1.1" id="Capa_1" xmlns="http://www.w3.org/2000/svg" xmlns:xlink="http://www.w3.org/1999/xlink" x="0px" y="0px"
	 viewBox="0 0 460 460" style="enable-background:new 0 0 460 460;" xml:space="preserve">
<g id="XMLID_502_">
	<path id="XMLID_532_" d="M336.52,108.927c1.549,5.733,2.173,11.868,1.759,18.176l15.67,9.498c7.686-6.18,9.38-17.335,3.644-25.533
		c-3.599-5.143-9.297-7.924-15.126-8.039L336.52,108.927z"/>
	<path id="XMLID_1114_" d="M184.486,249.346l7.793-35.682c-7.233-5.701-11.431-14.082-11.81-23.064
		c-35.842,0.161-28.561,0.128-37.65,0.17c-12.239,0.055-22.526-8.43-25.241-19.846l-9.598-40.32L83.288,243.657l0.009,0.002
		l-19.336,88.529c-0.618,2.83-0.688,5.751-0.207,8.607l16.907,100.294c2.074,12.3,13.718,20.673,26.128,18.59
		c12.348-2.082,20.671-13.779,18.59-26.128l-16.179-95.97l18.401-84.245v-0.001l10.168,2.221
		c0.533,1.619-5.232-11.539,84.402,190.942c5.069,11.453,18.462,16.624,29.911,11.554c11.45-5.069,16.623-18.46,11.555-29.911
		L184.486,249.346z"/>
	<path id="XMLID_1128_" d="M392.059,183.885l-1.491-0.904l2.322-3.832c2.139-3.53,1.012-8.127-2.519-10.267
		c-3.473-2.101-8.089-1.042-10.251,2.495c-0.005,0.008-0.011,0.015-0.016,0.023l-2.322,3.831c-0.789-0.478-0.331-0.201-2.556-1.549
		l2.322-3.832c2.163-3.572,0.965-8.159-2.519-10.267c-3.537-2.14-8.145-0.979-10.266,2.517l-0.001,0.001l-2.322,3.831
		c-5.98-3.624-41.356-25.066-47.248-28.637c1.08-3.241,1.8-5.781,2.233-9.432l-38.266,37.953c9.903,0.161,19.537-5.171,26.347-12.54
		c18.993,11.511,8.62,5.224,47.248,28.637l-2.322,3.831c-2.104,3.475-1.042,8.11,2.519,10.268c3.532,2.139,8.128,1.011,10.267-2.519
		l2.322-3.831l2.556,1.549l-2.322,3.831c-2.139,3.529-1.012,8.127,2.518,10.267c3.527,2.137,8.126,1.016,10.268-2.518l2.322-3.83
		l1.491,0.903c3.882,2.354,9.116,1.603,12.115-2.122c0.033-0.041,0.059-0.089,0.092-0.131
		C398.074,193.118,396.769,186.74,392.059,183.885z"/>
	<path id="XMLID_1133_" d="M191.018,98.98c-1.243,7.038-1.089,13.942,0.395,20.212l46.856-0.212l37.23-36.925
		c-3.247-19.008-14.628-28.627-27.712-30.9c-2.873,14.05-10.613,26.295-21.336,34.827C216.36,94.013,203.841,98.585,191.018,98.98z"
		/>
	<path id="XMLID_1135_" d="M180.817,77.426c21.122,4.615,41.998-8.768,46.613-29.902c4.615-21.129-8.773-41.999-29.902-46.614
		C194.713,0.295,191.903,0,189.135,0c-18.008,0.001-34.221,12.498-38.22,30.813C146.3,51.942,159.688,72.811,180.817,77.426z"/>
	<path id="XMLID_1136_" d="M211.451,199.619c5.229,0,7.176-2.894,13.555-9.221l-23.814,0.107
		C201.816,195.754,206.249,199.619,211.451,199.619z"/>
	<path id="XMLID_1137_" d="M347.724,54.117c-4.02-4.055-10.568-4.084-14.625-0.06l-71.058,70.477
		c5.921,3.772,10.656,9.238,13.516,15.725l72.107-71.517C351.719,64.72,351.746,58.172,347.724,54.117z"/>
	<path id="XMLID_1138_" d="M132.611,163.46c3.191,6.431,9.75,10.495,16.924,10.494c0.027,0,0.058,0,0.085,0l93.368-0.421
		c10.436-0.048,18.857-8.545,18.81-18.979c-0.047-10.407-8.496-18.81-18.893-18.81c-0.029,0-0.059,0-0.087,0l-81.594,0.368
		c0,0-22.875-48.452-22.944-49.509c3.471,4.223,9.579,11.657,26.875,32.707l5.213-0.023c-1.217-7.552-1.131-15.067,0.067-22.598
		c0.035-0.216,0.071-0.432,0.107-0.649c-13.141-4.278-24.69-13.013-32.467-25.758c-17.01-3.715-17.046-3.903-20.197-3.8
		c-15.205-2.495-26.808,13.29-19.986,27.032C105.053,107.942,125.427,148.988,132.611,163.46z"/>
</g>
<g>
</g>
<g>
</g>
<g>
</g>
<g>
</g>
<g>
</g>
<g>
</g>
<g>
</g>
<g>
</g>
<g>
</g>
<g>
</g>
<g>
</g>
<g>
</g>
<g>
</g>
<g>
</g>
<g>
</g>
</svg>
