<?xml version="1.0" encoding="iso-8859-1"?>
<!-- Generator: Adobe Illustrator 18.0.0, SVG Export Plug-In . SVG Version: 6.00 Build 0)  -->
<!DOCTYPE svg PUBLIC "-//W3C//DTD SVG 1.1//EN" "http://www.w3.org/Graphics/SVG/1.1/DTD/svg11.dtd">
<svg xmlns="http://www.w3.org/2000/svg" xmlns:xlink="http://www.w3.org/1999/xlink" version="1.1" id="Capa_1" x="0px" y="0px" viewBox="0 0 460.067 460.067" style="enable-background:new 0 0 460.067 460.067;" xml:space="preserve" width="512px" height="512px">
<g id="XMLID_925_">
	<circle id="XMLID_927_" cx="138.28" cy="37.866" r="37.866" fill="#FC3"/>
	<path id="XMLID_1045_" d="M186.219,189.168c-15.201,3.392-36.875,8.228-51.449,11.48c-11.551,2.577-23.02-3.316-27.94-13.54   l-17.387-36.111l0.008,287.146c0,12.109,9.816,21.925,21.925,21.925s21.925-9.816,21.925-21.925c0,0,0-142.237,0-170.426   c0-2.663,2.159-4.822,4.822-4.822c2.566,0,4.645,2.079,4.645,4.645c0,27.766,0,170.603,0,170.603   c0,12.109,9.816,21.925,21.925,21.925c12.109,0,21.925-9.816,21.925-21.925L186.219,189.168z" fill="#FC3"/>
	<path id="XMLID_1047_" d="M379.498,170.542H265.386l35.148-63.164L256.337,147.3c-0.43,10.477-5.646,20.135-13.931,26.283   c-0.265,3.178,0.427,6.42,2.086,9.24c2.797,4.762,7.966,7.72,13.489,7.72h121.517c5.523,0,10-4.477,10-10   C389.498,175.019,385.021,170.542,379.498,170.542z" fill="#FC3"/>
	<path id="XMLID_1048_" d="M253.223,131.479l66.711-51.65c1.994-1.555,2.552-4.411,1.185-6.605   c-1.462-2.347-4.549-3.065-6.896-1.603l-73.181,45.577C246.248,120.68,250.519,125.571,253.223,131.479z" fill="#FC3"/>
	<path id="XMLID_1049_" d="M217.886,128.034l-77.006,17.182c0,0-31.607-41.052-31.891-42.037   c6.494,5.123,24.698,19.485,32.137,25.354c38.274-8.564,80.921-17.164,80.921-17.164c0.804-0.435,82.836-43.264,87.892-45.904   c7.537-3.936,16.817,0.624,18.248,9.058l44.897,80.677c2.686,4.826,8.777,6.559,13.601,3.876c4.826-2.686,6.561-8.775,3.876-13.601   l-55.612-99.931c-2.31-4.151-6.695-6.73-11.446-6.73c-4.621,0-8.89,2.444-11.246,6.396c-6.068-3.927-14.155-4.031-20.434,0.378   l-60.733,42.67c-10.811-0.153-142.264-0.704-145.53,0.123c-5.529,0.292-10.775,3.079-14.066,7.832   c-4.6,6.644-4.289,15.522,0.767,21.828c9.747,12.158,37.481,46.751,47.232,58.915c3.511,4.379,8.782,6.843,14.254,6.843   c2.872,0-3.515,1.233,92.097-20.101c9.849-2.197,16.051-11.962,13.854-21.811C237.499,132.039,227.728,125.835,217.886,128.034z" fill="#FC3"/>
</g>
<g>
</g>
<g>
</g>
<g>
</g>
<g>
</g>
<g>
</g>
<g>
</g>
<g>
</g>
<g>
</g>
<g>
</g>
<g>
</g>
<g>
</g>
<g>
</g>
<g>
</g>
<g>
</g>
<g>
</g>
</svg>
