<?xml version="1.0" encoding="iso-8859-1"?>
<!-- Generator: Adobe Illustrator 18.0.0, SVG Export Plug-In . SVG Version: 6.00 Build 0)  -->
<!DOCTYPE svg PUBLIC "-//W3C//DTD SVG 1.1//EN" "http://www.w3.org/Graphics/SVG/1.1/DTD/svg11.dtd">
<svg version="1.1" id="Capa_1" xmlns="http://www.w3.org/2000/svg" xmlns:xlink="http://www.w3.org/1999/xlink" x="0px" y="0px"
	 viewBox="0 0 459.648 459.648" style="enable-background:new 0 0 459.648 459.648;" xml:space="preserve">
<g id="XMLID_464_">
	<path id="XMLID_466_" d="M110.582,87.634c-2.543-6.228-4.04-12.986-4.28-20.061L72.72,70.848c-5.4,0.538-10.225-3.439-10.752-8.841
		c-0.527-5.402,3.439-10.225,8.842-10.752l38.294-3.734c2.651-8.17,7.047-15.558,12.753-21.722L68.832,30.97
		c-16.587,1.618-28.766,16.428-27.149,33.015c1.625,16.65,16.414,28.767,33.015,27.148L110.582,87.634z"/>
	<path id="XMLID_473_" d="M164.84,103.767c16.857,0,31.153-10.92,36.228-26.069l24.697-1.998c0.341,9.411,4.26,16.341,10.658,21.037
		l8.413-12.537c-3.847-3.178-3.927-7.04-4.105-9.256l11.039-1.077c8.901-13.264,11.065-17.473,17.799-22.214
		c-37.885,3.694-24.014,2.467-67.358,5.941c-3.665-17.278-19.001-30.244-37.371-30.244c-21.102,0-38.209,17.107-38.209,38.209
		C126.631,86.661,143.738,103.767,164.84,103.767z"/>
	<path id="XMLID_475_" d="M300.625,65.908c-8.378-5.62-19.873-3.472-25.581,5.036l-35.534,52.954l-70.115-0.316l30.582-7.843
		l-58.352-0.016c-14.137,0-25.811,11.459-25.811,25.811v132.185l-2.758,65.906l-36.861,89.466
		c-4.654,11.297,0.73,24.228,12.026,28.883c11.291,4.653,24.227-0.727,28.883-12.027l38.346-93.072
		c0.983-2.386,1.542-4.925,1.649-7.504c3.166-75.655,2.965-70.524,2.965-71.409h7.468l22.971,62.63L170.1,432.935
		c-2.532,11.954,5.106,23.696,17.059,26.226c11.951,2.532,23.695-5.106,26.227-17.059l21.721-102.57
		c0.862-4.068,0.559-8.298-0.873-12.202l-20.77-56.629V170.446l-41.663-9.98l77.426,0.349c6.277,0,11.993-3.1,15.392-8.163
		l41.041-61.162C311.313,83.073,309.111,71.604,300.625,65.908z"/>
	<path id="XMLID_477_" d="M417.963,27.293c-1.617-16.586-16.422-28.768-33.015-27.149l-185.61,18.099
		c6.831,4.994,12.542,11.426,16.687,18.851L386.926,20.43c5.376-0.529,10.224,3.422,10.752,8.842
		c0.527,5.402-3.439,10.225-8.841,10.752L368.568,42l-0.908-11.33c-0.231-2.88-2.017-5.395-4.661-6.562
		c-2.694-1.189-5.757-0.751-7.988,0.979L340.695,36.19c-6.138,4.76-13.036,8.303-20.373,10.514l-15.331,1.495
		c0.694,0.309,1.378,0.641,2.053,0.995c8.251,4.308,14.561,11.605,17.567,20.623c6.744,1.181,13.29,3.449,19.319,6.741l15.902,8.681
		c2.466,1.347,5.556,1.307,8.042-0.304c2.425-1.573,3.787-4.34,3.557-7.22l-1.233-15.395l20.619-2.011
		c8.035-0.784,15.284-4.649,20.412-10.885C416.354,43.188,418.747,35.329,417.963,27.293z"/>
</g>
<g>
</g>
<g>
</g>
<g>
</g>
<g>
</g>
<g>
</g>
<g>
</g>
<g>
</g>
<g>
</g>
<g>
</g>
<g>
</g>
<g>
</g>
<g>
</g>
<g>
</g>
<g>
</g>
<g>
</g>
</svg>
