<?xml version="1.0" encoding="iso-8859-1"?>
<!-- Generator: Adobe Illustrator 16.0.0, SVG Export Plug-In . SVG Version: 6.00 Build 0)  -->
<!DOCTYPE svg PUBLIC "-//W3C//DTD SVG 1.1//EN" "http://www.w3.org/Graphics/SVG/1.1/DTD/svg11.dtd">
<svg xmlns="http://www.w3.org/2000/svg" xmlns:xlink="http://www.w3.org/1999/xlink" version="1.1" id="Capa_1" x="0px" y="0px" width="512px" height="512px" viewBox="0 0 449.02 449.02" style="enable-background:new 0 0 449.02 449.02;" xml:space="preserve">
<g>
	<path d="M331.42,58.721c-7.454,6.792-24.935-0.279-39.053-15.783c-14.122-15.507-19.536-33.581-12.082-40.361   c7.441-6.78,24.93,0.285,39.053,15.79C333.451,33.866,338.869,51.94,331.42,58.721z" fill="#FFDA44"/>
	<path d="M344.757,342.543c-0.613-6.035-3.511-11.233-8.171-14.619c-13.241-9.614-41.053-9.346-64.628-6.894   c3.818-11.4,3.803-23.375-0.137-35.133c-7.622-22.746-28.573-41.705-47.969-55.122c11.369-10.65,27.375-30.038,29.791-56.298   l7.281,7.175c0.598,0.589,1.383,0.877,2.148,0.877c0.806,0,1.595-0.302,2.192-0.916c1.189-1.212,1.174-3.152-0.032-4.344   l-11.345-11.185l7.605-9.798l13.301,12.876c0.597,0.571,1.37,0.864,2.14,0.864c0.806,0,1.604-0.315,2.2-0.936   c1.17-1.216,1.15-3.162-0.076-4.34l-13.785-13.339l7.666-9.866l12.274,11.866c0.598,0.577,1.371,0.867,2.132,0.867   c0.802,0,1.607-0.314,2.209-0.936c1.17-1.226,1.149-3.162-0.08-4.35l-12.756-12.333l9.674-12.457   c8.312-10.694,6.496-26.039-4.023-34.212c-4.232-3.288-9.313-5.033-14.688-5.033c-0.484,0-0.966,0.054-1.442,0.084L271.301,79   l42.891-13.345c-7.465-3.549-15.477-9.317-22.83-16.919c-8.893-9.191-15.104-19.246-17.945-28.032l-10.291,48.915L238.163,99.38   l-6.576-6.366c-1.219-1.178-3.166-1.146-4.342,0.068c-1.179,1.218-1.154,3.166,0.067,4.344l6.896,6.672l-8.011,9.546l-5.021-4.877   c-1.219-1.176-3.166-1.154-4.342,0.074c-1.176,1.222-1.146,3.162,0.068,4.346l5.364,5.182l-7.606,9.079l-6.784-6.69   c-1.208-1.196-3.154-1.18-4.346,0.032c-1.196,1.206-1.178,3.146,0.03,4.346l7.138,7.037l-38.65,46.087   c-3.711-2.33-7.829-4.231-12.292-5.574c-23.656-7.125-47.897,3.925-54.145,24.682c-6.256,20.757,7.843,43.358,31.49,50.496   c16.639,5.021,33.544,1.01,44.296-9.033c19.758,10.123,55.228,32.393,63.215,56.196c2.593,7.719,1.923,14.72-2.101,22.024   c-27.429,49.877-125.683,96.56-126.679,97.036l12.205,25.94c3.815-1.791,82.713-39.265,124.08-87.273   c25.23-4.261,51.459-5.535,62.84-3.274c-5.803,14.366-31.229,48.454-60.219,80.185l21.154,19.355   c0.706-0.781,17.408-19.079,34.115-40.387C342.36,367.381,345.723,352.072,344.757,342.543z M254.733,99.56   c3.158-4.074,7.896-6.412,12.984-6.412c3.543,0,6.869,1.146,9.654,3.296c6.952,5.408,8.118,15.597,2.589,22.726l-9.138,11.76   l-23.099-22.357L254.733,99.56z M243.93,113.456l23.099,22.359l-7.666,9.874l-23.106-22.359L243.93,113.456z M232.469,128.205   l23.091,22.359l-7.559,9.736l-22.914-22.596L232.469,128.205z M216.04,149.347l5.252-6.759l22.922,22.6l-2.929,3.77   c-1.09,1.39-2.36,2.553-3.743,3.51c0,0,0,0-2.376,1.365c-2.129,0.99-4.461,1.541-6.881,1.541c-3.541,0-6.875-1.146-9.654-3.296   C211.666,166.656,210.504,156.468,216.04,149.347z M207.656,220.49c-5.856-3.416-11.028-6.149-14.93-8.089   c-0.188-9.574-4.256-18.905-11.183-26.329l22.847-27.242c-0.194,7.452,2.951,14.846,9.207,19.712   c4.231,3.29,9.311,5.025,14.688,5.025c1.73,0,3.418-0.198,5.073-0.543C228.209,200.956,215.125,214.146,207.656,220.49z" fill="#FFDA44"/>
</g>
<g>
</g>
<g>
</g>
<g>
</g>
<g>
</g>
<g>
</g>
<g>
</g>
<g>
</g>
<g>
</g>
<g>
</g>
<g>
</g>
<g>
</g>
<g>
</g>
<g>
</g>
<g>
</g>
<g>
</g>
</svg>
