<?xml version="1.0" encoding="iso-8859-1"?>
<!-- Generator: Adobe Illustrator 18.0.0, SVG Export Plug-In . SVG Version: 6.00 Build 0)  -->
<!DOCTYPE svg PUBLIC "-//W3C//DTD SVG 1.1//EN" "http://www.w3.org/Graphics/SVG/1.1/DTD/svg11.dtd">
<svg version="1.1" id="Capa_1" xmlns="http://www.w3.org/2000/svg" xmlns:xlink="http://www.w3.org/1999/xlink" x="0px" y="0px"
	 viewBox="0 0 459.631 459.631" style="enable-background:new 0 0 459.631 459.631;" xml:space="preserve">
<g id="XMLID_1019_">
	<circle id="XMLID_1026_" cx="295.25" cy="74.628" r="34.53" fill="#FC3"/>
	<path id="XMLID_1085_" d="M382.649,0.088c-8.446-0.903-16.015,5.228-16.907,13.673l-7.783,73.587L319.9,136.825
		c-47.484,0,55.328,0-68.955,0l-60.838,4.902l-45.775-17.37L81.241,34.409c-3.141-4.48-9.318-5.563-13.8-2.422
		c-4.48,3.142-5.564,9.321-2.422,13.8l56.989,81.248c-1.046,1.266-1.916,2.713-2.532,4.334c-3.013,7.939,0.981,16.818,8.921,19.831
		l54.023,20.501c1.745,0.663,3.594,1.001,5.455,1.001c0.402,0,0.804-0.016,1.206-0.048l61.864-4.866v109.684L212.77,434.923
		c-2.602,10.731,3.988,21.539,14.719,24.141c10.738,2.603,21.541-3.995,24.141-14.719c41.883-172.749,39.288-160.931,39.29-164.516
		h8.651v0v159.805c0,11.042,8.952,19.993,19.993,19.993c11.041,0,19.993-8.951,19.993-19.993c0-20.925-0.363-256.537-0.363-277.456
		l45.786-59.522c1.731-2.25,2.805-4.935,3.104-7.757l8.239-77.903C397.216,8.551,391.094,0.981,382.649,0.088z" fill="#FC3"/>
</g>
<g>
</g>
<g>
</g>
<g>
</g>
<g>
</g>
<g>
</g>
<g>
</g>
<g>
</g>
<g>
</g>
<g>
</g>
<g>
</g>
<g>
</g>
<g>
</g>
<g>
</g>
<g>
</g>
<g>
</g>
</svg>
