<svg viewBox="-132 0 511 512" xmlns="http://www.w3.org/2000/svg"><path d="m182.636719 222c0-12.335938-9.996094-22.332031-22.332031-22.332031h-35.828126l-.15625 32zm0 0" fill="#ff5d5d"/><path d="m67.546875 340.332031 88.730469 145.117188 50.6875-29.378907-35.5-25.730468-44.90625-90.007813zm0 0" fill="#5a54e0"/><path d="m34.421875 340.332031v161.667969h58.585937l-17.804687-40.0625 14-121.605469zm0 0" fill="#6a80ff"/><g fill="#ff5d5d"><path d="m117.289062 10h-92.390624c-4.726563 0-8.121094 4.550781-6.777344 9.078125l13.332031 44.921875h79.277344l13.335937-44.921875c1.34375-4.527344-2.050781-9.078125-6.777344-9.078125zm0 0"/><path d="m124.320312 231.667969v-41.066407c0-29.417968-23.847656-53.265624-53.265624-53.265624l-28.167969 7.019531c-23.410157 5.832031-37.402344 29.824219-30.953125 53.074219l16.125 58.105468c3.410156 12.292969 14.601562 20.800782 27.355468 20.800782h104.738282c12.332031 0 22.332031-10 22.332031-22.335938 0-12.332031-10-22.332031-22.332031-22.332031h-84.988282zm0 0"/><path d="m15.425781 340.332031h126.277344l-19-64h-88.28125zm0 0"/></g><path d="m110.847656 64h-79.277344v33.695312c0 21.890626 17.746094 39.636719 39.636719 39.636719s39.636719-17.746093 39.636719-39.636719v-33.695312zm0 0" fill="#ffcdac"/><path d="m217.578125 378.089844h-73.101563c-11.046874 0-20-8.953125-20-20v-61.109375c0-11.046875 8.953126-20 20-20h73.101563c11.046875 0 20 8.953125 20 20v61.109375c0 11.042968-8.953125 20-20 20zm0 0" fill="#ffc66c"/><path d="m34.539062 391c2.628907 0 5.210938-1.070312 7.070313-2.929688 1.859375-1.859374 2.929687-4.441406 2.929687-7.070312s-1.070312-5.210938-2.929687-7.070312c-1.859375-1.859376-4.441406-2.929688-7.070313-2.929688-2.632812 0-5.210937 1.070312-7.070312 2.929688-1.859375 1.859374-2.929688 4.441406-2.929688 7.070312s1.070313 5.210938 2.929688 7.070312c1.859375 1.859376 4.4375 2.929688 7.070312 2.929688zm0 0"/><path d="m217.578125 266.980469h-10.988281l31.542968-31.546875c3.90625-3.902344 3.90625-10.234375 0-14.140625-3.902343-3.90625-10.234374-3.90625-14.140624 0l-31.355469 31.351562v-72.144531c0-5.523438-4.476563-10-10-10-5.519531 0-10 4.476562-10 10v11.617188c-3.800781-1.574219-7.964844-2.449219-12.332031-2.449219h-25.851563c-.335937-22.957031-12.949219-42.976563-31.5625-53.792969 10.960937-9.113281 17.953125-22.84375 17.953125-38.179688v-32.242187l12.917969-43.527344c1.550781-5.214843.574219-10.703125-2.679688-15.0625-3.25-4.363281-8.238281-6.863281-13.679687-6.863281h-92.390625c-5.4375 0-10.425781 2.5-13.679688 6.859375-3.253906 4.359375-4.230469 9.851563-2.683593 15.066406l12.921874 43.527344v32.242187c0 14.949219 6.652344 28.371094 17.144532 37.476563-13.117188 3.78125-24.070313 12.289063-30.988282 24.148437-7.246093 12.433594-9.121093 26.914063-5.273437 40.777344l16.125 58.113282c1.414063 5.09375 3.835937 9.710937 7.007813 13.667968-.253907.511719-.46875 1.046875-.636719 1.605469l-18.996094 64c-.894531 3.027344-.3125 6.296875 1.574219 8.828125 1.886718 2.527344 4.855468 4.019531 8.015625 4.019531h62.558593l-11.699218 101.601563h-21.863282v-30.769532c0-5.523437-4.480468-10-10-10-5.523437 0-10 4.476563-10 10v80.835938c0 5.523438 4.476563 10 10 10h58.585938c3.382812 0 6.539062-1.714844 8.382812-4.550781 1.847657-2.839844 2.128907-6.417969.753907-9.511719l-16.695313-37.566406 6.773438-58.839844 55.5625 89.203125c1.890625 3.039063 5.152344 4.714844 8.496094 4.714844 1.707031 0 3.429687-.433594 5.007812-1.347657l50.6875-29.382812c2.929688-1.695312 4.800781-4.757812 4.972656-8.140625s-1.375-6.617187-4.117187-8.605469l-33.515625-24.296875-17.792969-35.585937h55.9375c16.542969 0 30-13.460938 30-30v-61.109375c0-16.542969-13.457031-30-30-30zm-44.941406-44.980469v2.117188c-3.800781-1.574219-7.964844-2.449219-12.332031-2.449219h-25.828126v-12h25.828126c6.800781 0 12.332031 5.53125 12.332031 12.332031zm-58.160157-24.382812-31.222656-48.566407c18.011719 5.230469 31.222656 21.871094 31.222656 41.550781zm-72.90625-123.617188h59.277344v23.695312c0 16.339844-13.296875 29.636719-29.640625 29.636719s-29.636719-13.296875-29.636719-29.636719zm71.90625-54-10.09375 34h-64.351562l-10.089844-34zm-88.472656 149.398438c4.507813-7.730469 11.773438-13.179688 20.453125-15.34375l14.855469-3.703126 45.847656 71.3125h-23.3125l-9.40625-32.757812c-1.523437-5.308594-7.058594-8.375-12.371094-6.851562-5.308593 1.523437-8.375 7.0625-6.851562 12.371093l11.488281 40c1.226563 4.285157 5.148438 7.238281 9.609375 7.238281h49.152344.015625.015625 35.804688c6.800781 0 12.332031 5.53125 12.332031 12.332032 0 6.804687-5.53125 12.335937-12.332031 12.335937h-104.734376c-8.234374 0-15.519531-5.542969-17.722656-13.472656l-16.121094-58.109375c-2.390624-8.617188-1.226562-17.621094 3.277344-25.351562zm16.996094 116.933593h74.4375c-1.261719 3.3125-1.960938 6.898438-1.960938 10.648438v33.351562h-25.011718c-.019532 0-.042969 0-.0625 0h-60.460938zm2.539062 205.667969v-20.0625h24.28125l8.917969 20.0625zm53.695313-141.667969h16.242187v7.757813c0 14.679687 10.605469 26.925781 24.554688 29.496094l19.402344 38.816406-19.867188 11.515625-42.554687-68.316407zm61.523437 121.605469-10.613281-17.035156 21.828125-12.65625 17.777344 12.886718zm67.820313-113.847656c0 5.511718-4.484375 10-10 10h-73.101563c-5.515624 0-10-4.488282-10-10v-61.109375c0-5.515625 4.484376-10 10-10h73.101563c5.515625 0 10 4.484375 10 10zm0 0"/></svg>