<svg viewBox="-64 0 512 512" xmlns="http://www.w3.org/2000/svg"><path d="m120.527344 64h-79.277344v33.695312c0 21.890626 17.746094 39.636719 39.640625 39.636719 21.890625 0 39.636719-17.746093 39.636719-39.636719zm0 0" fill="#ffcdac"/><path d="m77.34375 340.332031 88.730469 145.117188 50.6875-29.378907-35.496094-25.730468-44.910156-90.007813zm0 0" fill="#5a54e0"/><path d="m44.21875 340.332031v161.667969h58.589844l-17.808594-40.0625 14-121.605469zm0 0" fill="#6a80ff"/><path d="m129.082031 10h-92.390625c-4.722656 0-8.121094 4.550781-6.773437 9.078125l13.332031 44.921875h79.277344l13.332031-44.921875c1.34375-4.527344-2.050781-9.078125-6.777344-9.078125zm0 0" fill="#ff5d5d"/><path d="m374.640625 235.90625c0 64.242188-52.078125 116.320312-116.320313 116.320312-64.242187 0-116.320312-52.078124-116.320312-116.320312s52.078125-116.320312 116.320312-116.320312c64.242188 0 116.320313 52.078124 116.320313 116.320312zm0 0" fill="#ffc66c"/><g fill="#ff5d5d"><path d="m25.222656 340.332031h126.273438l-18.996094-64h-88.28125zm0 0"/><path d="m134.15625 231.667969v-41.066407c0-29.417968-23.847656-53.265624-53.265625-53.265624l-37.191406 9.265624c-19.800781 4.933594-33.699219 22.722657-33.699219 43.132813v67.765625c0 10.402344 8.433594 18.832031 18.832031 18.832031h90.832031c12.335938 0 22.335938-9.996093 22.335938-22.332031s-10-22.332031-22.335938-22.332031h-61.332031"/><path d="m127.085938 10h-92.390626c-4.726562 0-8.121093 4.550781-6.777343 9.078125l13.335937 44.921875h79.273438l13.335937-44.921875c1.34375-4.527344-2.050781-9.078125-6.777343-9.078125zm0 0"/></g><path d="m273.871094 231.96875c0 11.046875-8.953125 20-20 20-11.042969 0-20-8.953125-20-20s8.957031-20 20-20c11.046875 0 20 8.953125 20 20zm0 0" fill="#fff"/><path d="m333.808594 161.035156c1.957031 1.984375 4.535156 2.976563 7.117187 2.976563 2.539063 0 5.078125-.960938 7.027344-2.886719 3.929687-3.882812 3.96875-10.210938.085937-14.140625l-.394531-.398437c-3.90625-3.90625-10.238281-3.90625-14.144531 0-3.90625 3.902343-3.90625 10.234374 0 14.140624zm0 0"/><path d="m373 182.863281c-2.316406-5.011719-8.257812-7.199219-13.273438-4.878906-5.011718 2.320313-7.195312 8.261719-4.878906 13.273437 18.625 40.28125 10.046875 88.433594-21.347656 119.828126-41.453125 41.453124-108.90625 41.453124-150.359375 0-13.683594-13.683594-22.84375-30.195313-27.496094-47.675782l72.703125-15.695312c5.292969 8.546875 14.753906 14.257812 25.523438 14.257812 16.542968 0 30-13.460937 30-30 0-16.542968-13.457032-30-30-30-15.25 0-27.871094 11.441406-29.75 26.191406l-71.789063 15.503907c-2.15625-29.753907 8.109375-60.242188 30.808594-82.941407 30.964844-30.964843 76.96875-39.804687 117.199219-22.515624 5.074218 2.179687 10.957031-.167969 13.136718-5.242188 2.179688-5.074219-.164062-10.953125-5.238281-13.132812-22.953125-9.863282-48.117187-12.691407-72.78125-8.175782-25.257812 4.628906-48.238281 16.703125-66.457031 34.925782-10.824219 10.820312-19.265625 23.132812-25.332031 36.28125-2.457031-20.070313-14.347657-37.257813-31.09375-46.992188 10.960937-9.113281 17.953125-22.84375 17.953125-38.179688v-32.242187l12.921875-43.527344c1.546875-5.214843.570312-10.707031-2.683594-15.066406s-8.242187-6.859375-13.679687-6.859375h-92.390626c-5.4375 0-10.425781 2.5-13.679687 6.859375s-4.234375 9.851563-2.6875 15.066406l12.921875 43.527344v32.242187c0 14.929688 6.636719 28.332032 17.105469 37.441407l-7.074219 1.761719c-24.304688 6.054687-41.28125 27.78125-41.28125 52.832031v67.769531c0 15.898438 12.933594 28.832031 28.832031 28.832031h1.988281l-15.183593 51.15625c-.898438 3.023438-.3125 6.296875 1.574219 8.824219 1.886718 2.53125 4.855468 4.019531 8.011718 4.019531h62.558594l-11.695312 101.605469h-21.867188v-30.773438c0-5.519531-4.476562-10-10-10-5.519531 0-10 4.480469-10 10v80.835938c0 5.523438 4.480469 10 10 10h58.589844c3.382812 0 6.539062-1.714844 8.382812-4.550781 1.84375-2.839844 2.128906-6.417969.753906-9.511719l-16.699218-37.566406 6.773437-58.839844 55.566407 89.203125c1.890624 3.039063 5.152343 4.714844 8.496093 4.714844 1.703125 0 3.429688-.433594 5.007813-1.347657l50.6875-29.382812c2.925781-1.695312 4.796875-4.757812 4.972656-8.140625.171875-3.382813-1.378906-6.617187-4.117188-8.605469l-33.515624-24.292968-36.625-73.40625c2.777343-.277344 5.332031-1.699219 7.019531-3.960938 1.886719-2.527344 2.472656-5.800781 1.574219-8.824219l-10.640626-35.847656c5.117188 8.398437 11.296876 16.332031 18.550782 23.585937 23.859375 23.859376 55.582031 37 89.324218 37 33.742188 0 65.460938-13.140624 89.320313-37 37.296875-37.292968 47.488281-94.507812 25.359375-142.363281zm-119.128906 39.105469c5.515625 0 10 4.484375 10 10s-4.484375 10-10 10c-5.511719 0-10-4.484375-10-10s4.488281-10 10-10zm-202.617188-147.96875h59.273438v23.695312c0 16.34375-13.296875 29.636719-29.636719 29.636719-16.34375 0-29.640625-13.292969-29.640625-29.636719v-23.695312zm71.902344-54-10.089844 34h-64.351562l-10.09375-34zm-103.15625 237.5v-67.769531c0-15.847657 10.738281-29.59375 26.117188-33.425781l35.886718-8.941407c23.34375.59375 42.152344 19.753907 42.152344 43.238281v31.382813c-1.46875-.203125-2.964844-.316406-4.492188-.316406h-51.332031v-30c0-5.523438-4.476562-10-10-10-5.519531 0-10 4.476562-10 10v40c0 5.523437 4.480469 10 10 10h61.332031c6.804688 0 12.335938 5.53125 12.335938 12.332031s-5.53125 12.332031-12.335938 12.332031h-90.832031c-4.867187 0-8.832031-3.960937-8.832031-8.832031zm31.683594 28.832031h73.355468l13.058594 44h-38.960937c-.011719 0-.023438 0-.039063 0h-60.476562zm2.535156 205.667969v-20.0625h24.285156l8.914063 20.0625zm53.695312-141.667969h22.257813l37.949219 76.066407-19.875 11.519531-42.550782-68.316407zm61.523438 121.605469-10.613281-17.035156 21.832031-12.65625 17.777344 12.886718zm0 0"/><path d="m44.21875 389.058594c2.632812 0 5.210938-1.066406 7.070312-2.929688 1.859376-1.859375 2.929688-4.429687 2.929688-7.070312 0-2.628906-1.066406-5.207032-2.929688-7.066406-1.859374-1.859376-4.4375-2.933594-7.070312-2.933594-2.628906 0-5.207031 1.070312-7.066406 2.933594-1.863282 1.859374-2.933594 4.4375-2.933594 7.066406 0 2.640625 1.070312 5.210937 2.933594 7.070312 1.859375 1.871094 4.4375 2.929688 7.066406 2.929688zm0 0"/></svg>