<svg viewBox="-137 0 511 511.99951" xmlns="http://www.w3.org/2000/svg"><path d="m136.25 50.515625c31.996094-5.097656 62.171875-18.238281 87.703125-38.191406l2.972656-2.324219v121.542969l-1.035156-.835938c-25.859375-20.902343-56.785156-34.589843-89.640625-39.679687zm0 0" fill="#ffc66c"/><path d="m182.464844 175.480469c-8-8.046875-21.132813-7.660157-28.644532.84375l-59.621093 67.523437 44.207031-52.550781c-7.289062-14.425781-22.246094-24.316406-39.511719-24.316406h-4.695312l-28.484375 7.101562c-20.078125 5.003907-32.078125 25.578125-26.546875 45.519531l13.929687 50.199219c1.78125 6.429688 5.347656 11.992188 10.066406 16.21875l-20.105468 67.457031h116.007812l-28.316406-92.15625 52.457031-58.945312c6.898438-7.75 6.574219-19.53125-.742187-26.894531zm0 0" fill="#ff5d5d"/><path d="m90.9375 353.476562 81.519531 133.320313 46.5625-26.992187-32.609375-23.640626-41.253906-82.6875zm0 0" fill="#5a54e0"/><path d="m60.507812 353.476562v148.523438h53.824219l-16.359375-36.804688 12.863282-111.71875zm0 0" fill="#6a80ff"/><path d="m136.636719 50h-84.878907c-4.339843 0-7.460937 4.179688-6.222656 8.34375l12.246094 41.265625h72.832031l12.25-41.265625c1.234375-4.164062-1.882812-8.34375-6.226562-8.34375zm0 0" fill="#ff5d5d"/><path d="m130.613281 99.609375h-72.832031v30.957031c0 20.113282 16.304688 36.414063 36.417969 36.414063 20.109375 0 36.414062-16.300781 36.414062-36.414063zm0 0" fill="#ffcdac"/><path d="m60.511719 396c2.628906 0 5.210937-1.070312 7.070312-2.929688 1.859375-1.859374 2.929688-4.441406 2.929688-7.070312s-1.070313-5.210938-2.929688-7.070312c-1.859375-1.859376-4.441406-2.929688-7.070312-2.929688-2.640625 0-5.210938 1.070312-7.070313 2.929688-1.871094 1.859374-2.929687 4.441406-2.929687 7.070312s1.058593 5.210938 2.929687 7.070312c1.859375 1.859376 4.441406 2.929688 7.070313 2.929688zm0 0"/><path d="m231.308594 1.011719c-3.4375-1.675781-7.527344-1.246094-10.542969 1.109375l-2.972656 2.324218c-23.269531 18.1875-50.832031 30.453126-79.894531 35.628907-.417969-.03125-.835938-.074219-1.261719-.074219h-84.878907c-5.253906 0-10.074218 2.414062-13.21875 6.628906-3.140624 4.210938-4.085937 9.519532-2.59375 14.558594l2.6875 9.042969c-21.914062 5.734375-38.132812 25.699219-38.132812 49.382812v6.328125c0 24.925782 17.960938 45.71875 41.621094 50.152344-3.046875 2.953125-5.71875 6.332031-7.921875 10.105469-6.414063 11-8.070313 23.808593-4.664063 36.074219l13.925782 50.199218c1.730468 6.234375 4.78125 11.84375 8.789062 16.574219-.570312.835937-1.023438 1.769531-1.328125 2.785156l-17.453125 58.796875c-.894531 3.027344-.3125 6.300782 1.574219 8.828125 1.886719 2.527344 4.859375 4.019531 8.015625 4.019531h56.558594l-10.558594 91.71875h-18.550782v-27.457031c0-5.523437-4.476562-10-10-10-5.519531 0-10 4.476563-10 10v74.261719c0 5.523438 4.480469 10 10 10h53.824219c3.386719 0 6.542969-1.714844 8.386719-4.550781 1.84375-2.839844 2.125-6.417969.75-9.511719l-15.25-34.3125 5.933594-51.519531 49.816406 79.976562c1.890625 3.035157 5.152344 4.714844 8.496094 4.714844 1.703125 0 3.429687-.4375 5.003906-1.351563l46.566406-26.992187c2.929688-1.695313 4.800782-4.757813 4.972656-8.140625.171876-3.382812-1.375-6.617188-4.117187-8.605469l-30.625-22.203125-33.066406-66.269531c2.363281-.515625 4.488281-1.871094 5.945312-3.863281 1.882813-2.582032 2.417969-5.90625 1.441407-8.949219l-26.128907-81.503906c-.425781-1.332031-1.105469-2.507813-1.96875-3.5l50.1875-56.394531c9.210938-10.351563 9.863281-25.535157 2.21875-36.574219 7.191407-4.820313 11.9375-13.019531 11.9375-22.3125 0-14.800781-12.042969-26.84375-26.84375-26.84375h-37.375v-21.367188c28.886719 5.476563 56.089844 18.046875 78.996094 36.558594l1.035156.835937c1.8125 1.464844 4.039063 2.21875 6.28125 2.21875 1.464844 0 2.9375-.320312 4.308594-.976562 3.476563-1.660156 5.691406-5.171875 5.691406-9.023438v-121.539062c0-3.824219-2.179687-7.3125-5.617187-8.988281zm-110.695313 122.328125c-5.105469.449218-9.113281 4.730468-9.113281 9.957031 0 4.183594 2.574219 7.765625 6.222656 9.257813-4.375 8.554687-13.273437 14.425781-23.523437 14.425781-14.566407 0-26.417969-11.847657-26.417969-26.414063v-20.957031h52.832031zm11.328125-63.339844-8.789062 29.609375h-57.90625l-4.140625-13.953125c-.011719-.027344-.019531-.058594-.027344-.085938l-4.621094-15.570312zm-111.441406 65.941406v-6.324218c0-14.636719 10.179688-26.929688 23.828125-30.1875l3.453125 11.632812v29.503906c0 9.808594 3.070312 18.910156 8.28125 26.414063h-4.523438c-17.117187 0-31.039062-13.921875-31.039062-31.039063zm50.007812 366.058594v-16.804688h20.96875l7.46875 16.804688zm49.242188-128.523438h19.21875l34.300781 68.746094-16.917969 9.804688-38.523437-61.847656zm56.074219 109.808594-8.890625-14.273437 18.871094-10.9375 14.890624 10.792969zm-30.464844-129.808594h-88.902344l12.519531-42.183593c5.234376 2.1875 10.9375 3.386719 16.84375 3.386719 12.539063 0 24.507813-5.371094 32.839844-14.734376l7.011719-7.875zm30.375-147.75-72.011719 80.921876c-4.542968 5.105468-11.066406 8.03125-17.898437 8.03125-10.730469 0-20.222657-7.21875-23.089844-17.554688l-13.929687-50.195312c-1.945313-7.023438-1-14.359376 2.671874-20.652344 3.671876-6.296875 9.585938-10.730469 16.65625-12.496094l27.292969-6.800781h3.472657c11.351562 0 21.726562 5.503906 28.082031 14.632812l-27.710938 31.386719-2.148437-8.539062c-1.347656-5.355469-6.773438-8.605469-12.136719-7.261719-5.355469 1.347656-8.605469 6.78125-7.257813 12.136719l6.777344 26.949218c.902344 3.601563 3.726563 6.402344 7.335938 7.277344 3.605468.875 7.398437-.316406 9.855468-3.097656l59.621094-67.519532c1.785156-2.019531 4.246094-3.175781 6.9375-3.253906 2.695313-.089844 5.222656.929688 7.121094 2.839844 3.578125 3.601562 3.738281 9.398438.359375 13.195312zm9.097656-45.585937c0 3.773437-3.070312 6.839844-6.84375 6.839844h-45.65625c2.867188-4.125 5.078125-8.738281 6.492188-13.683594h39.164062c3.773438 0 6.84375 3.070313 6.84375 6.84375zm32.09375-38.378906c-21.460937-14.1875-45.554687-24.097657-70.839843-29.128907l6.363281-21.445312c.378906-1.277344.601562-2.570312.671875-3.859375 22.679687-5.453125 44.324218-14.832031 63.804687-27.65625zm0 0"/></svg>