<svg viewBox="-47 0 512 512" xmlns="http://www.w3.org/2000/svg"><path d="m395.816406 189.394531-59.253906-45.394531 59.253906-45.394531c4.949219-3.792969 12.101563-.261719 12.101563 5.972656v78.84375c0 6.234375-7.152344 9.765625-12.101563 5.972656zm0 0" fill="#ffb954"/><path d="m220.507812 185.132812h-48.117187l-3.167969 1.757813c5.546875 9.472656 3.238282 22.066406-6.183594 28.777344l-45.78125 32.617187-1.289062 3.328125 8.722656 22.351563c8.152344 0 16.097656-2.539063 22.734375-7.269532l70.417969-50.167968c10.382812-7.398438 11.652344-22.347656 2.664062-31.394532zm0 0" fill="#fe8f8d"/><path d="m116.804688 10h-92.390626c-4.726562 0-8.121093 4.550781-6.777343 9.078125l13.332031 44.921875h79.277344l13.332031-44.921875c1.347656-4.527344-2.046875-9.078125-6.773437-9.078125zm0 0" fill="#72d8ff"/><path d="m66.871094 340.332031 88.730468 145.117188 50.6875-29.378907-35.496093-25.730468-44.910157-90.007813zm0 0" fill="#5a54e0"/><path d="m33.746094 340.332031v161.667969h58.589844l-17.808594-40.0625 14-121.605469zm0 0" fill="#6a80ff"/><path d="m116.613281 10h-92.390625c-4.726562 0-8.121094 4.550781-6.777344 9.078125l13.335938 44.921875h79.277344l13.332031-44.921875c1.34375-4.527344-2.050781-9.078125-6.777344-9.078125zm0 0" fill="#ff5d5d"/><path d="m165.855469 182.511719c-7.113281-7.15625-18.207031-8.503907-26.824219-3.261719l-15.925781 9.691406.582031-3.453125c0-26.59375-21.558594-48.15625-48.15625-48.15625h-5.113281l-27.746094 6.914063c-23.640625 5.894531-37.769531 30.121094-31.253906 53.601562l13.363281 48.171875c2.207031 7.953125 6.652344 14.816407 12.539062 19.992188l-3.570312 10.324219-18.996094 64h126.273438l-28.441406-88.722657 50.453124-35.945312c10.96875-7.8125 12.308594-23.601563 2.816407-33.15625zm0 0" fill="#ff5d5d"/><path d="m110.246094 64h-79.277344v33.695312c0 21.890626 17.75 39.636719 39.640625 39.636719s39.636719-17.746093 39.636719-39.636719zm0 0" fill="#ffcdac"/><path d="m408.148438 88.863281c-6.023438-2.972656-13.082032-2.285156-18.414063 1.804688l-56.5625 43.332031h-28.207031c-4.644532-22.792969-24.851563-40-48.996094-40h-20c-5.523438 0-10 4.476562-10 10s4.476562 10 10 10h20c13.039062 0 24.160156 8.359375 28.289062 20h-107.84375c-16.542968 0-30 13.457031-30 30 0 .777344.039063 1.546875.097657 2.3125-4.316407.558594-8.570313 2.011719-12.488281 4.398438l-1.789063 1.085937c-3.878906-16-14.382813-29.4375-28.445313-37.222656 6.15625-5.539063 10.910157-12.597657 13.691407-20.574219h45.820312c5.523438 0 10-4.476562 10-10s-4.476562-10-10-10h-43.054687v-28.546875l12.921875-43.527344c1.546875-5.214843.566406-10.707031-2.6875-15.066406-3.253907-4.359375-8.238281-6.859375-13.675781-6.859375h-92.390626c-5.441406 0-10.425781 2.5-13.679687 6.859375s-4.230469 9.851563-2.683594 15.066406l12.917969 43.527344v32.242187c0 14.957032 6.660156 28.378907 17.160156 37.488282-13.050781 3.867187-23.941406 12.394531-30.84375 24.230468-7.3046872 12.53125-9.195312 27.128907-5.316406 41.105469l13.367188 48.171875c2.1875 7.871094 6.171874 14.894532 11.421874 20.6875-1.085937 1.121094-1.933593 2.507813-2.40625 4.109375l-18.996093 64c-.898438 3.023438-.316407 6.296875 1.570312 8.824219 1.886719 2.53125 4.859375 4.019531 8.015625 4.019531h8.996094v151.667969c0 5.523438 4.476562 10 10 10h58.585938c3.382812 0 6.539062-1.714844 8.382812-4.550781 1.847656-2.839844 2.128906-6.417969.753906-9.511719l-16.695312-37.566406 6.773437-58.839844 55.5625 89.203125c1.890625 3.039063 5.152344 4.714844 8.5 4.714844 1.703125 0 3.425781-.433594 5.003907-1.347657l50.6875-29.382812c2.929687-1.695312 4.800781-4.757812 4.972656-8.140625s-1.378906-6.617187-4.117188-8.605469l-33.511718-24.292968-36.628907-73.40625c2.816407-.28125 5.398438-1.738282 7.085938-4.046876 1.882812-2.582031 2.417969-5.90625 1.445312-8.945312l-17.34375-54.09375c7.109375-1.269531 13.847657-4.085938 19.832031-8.347656l70.414063-50.167969c7.347656-5.234375 12-13.390625 12.761719-22.375.238281-2.804687.089844-5.59375-.421875-8.296875h19.988281c24.144531 0 44.347656-17.203125 48.996094-40h28.207031l56.558594 43.335938c3.136719 2.402343 6.871093 3.628906 10.636719 3.628906 2.640624 0 5.296874-.601563 7.78125-1.828125 6.023437-2.976563 9.765624-8.996094 9.765624-15.714844v-78.84375c.003907-6.71875-3.738281-12.738281-9.765624-15.714844zm-367.179688-14.863281h59.277344v23.695312c0 16.34375-13.296875 29.636719-29.636719 29.636719-16.34375 0-29.640625-13.292969-29.640625-29.636719zm71.90625-54-10.089844 34h-64.351562l-10.09375-34zm-88.308594 149.488281c4.5625-7.828125 11.921875-13.34375 20.714844-15.539062l26.554688-6.617188h3.886718c20.207032 0 36.789063 15.796875 38.066406 35.6875l-36.792968 22.386719-4.066406-16.179688c-1.347657-5.355468-6.777344-8.605468-12.136719-7.257812-5.355469 1.347656-8.605469 6.78125-7.257813 12.136719l7.375 29.332031c.773438 3.082031 2.96875 5.609375 5.90625 6.816406 2.941406 1.203125 6.277344.9375 8.988282-.710937l68.613281-41.75c4.6875-2.851563 10.664062-2.125 14.53125 1.765625 2.488281 2.503906 3.695312 5.820312 3.394531 9.335937-.296875 3.515625-2.042969 6.582031-4.917969 8.628907l-50.367187 35.882812c-.023438.019531-.046875.035156-.066406.046875l-23.9375 17.054687c-5.34375 3.808594-11.640626 5.824219-18.207032 5.824219-14.046875 0-26.480468-9.453125-30.238281-22.988281l-13.367187-48.171875c-2.421876-8.734375-1.242188-17.855469 3.324218-25.683594zm102.941406 160.84375h-38.65625c-.011718 0-.023437 0-.03125 0h-60.480468l14.539062-48.972656c6.722656 3.199219 14.191406 4.972656 21.96875 4.972656 10.75 0 21.058594-3.296875 29.8125-9.53125l12.769532-9.101562zm-50.007812 20-11.699219 101.605469h-21.863281v-101.605469zm-33.5625 141.667969v-20.0625h24.28125l8.917969 20.0625zm53.695312-141.667969h22.253907l37.953125 76.066407-19.875 11.519531-42.550782-68.316407zm61.523438 121.605469-10.609375-17.035156 21.828125-12.65625 17.773438 12.886718zm57.320312-271.335938c-.269531 3.171876-1.847656 5.933594-4.441406 7.78125l-70.414062 50.167969c-4.285156 3.054688-9.230469 4.859375-14.425782 5.300781l-2.667968-8.332031 44.5-31.707031c7.625-5.429688 12.453125-13.898438 13.246094-23.222656.1875-2.21875.132812-4.425782-.132813-6.589844h32.730469c1.242187 1.941406 1.804687 4.222656 1.605468 6.601562zm39.492188-26.601562h-79.554688c-5.515624 0-10-4.484375-10-10s4.484376-10 10-10h107.839844c-4.125 11.640625-15.246094 20-28.285156 20zm141.949219 4.40625-44.914063-34.40625 44.914063-34.40625zm0 0"/><path d="m199.296875 114c2.640625 0 5.210937-1.070312 7.070313-2.929688 1.871093-1.859374 2.929687-4.441406 2.929687-7.070312s-1.058594-5.210938-2.929687-7.070312c-1.859376-1.859376-4.429688-2.929688-7.070313-2.929688-2.628906 0-5.210937 1.070312-7.070313 2.929688-1.859374 1.859374-2.929687 4.441406-2.929687 7.070312s1.070313 5.210938 2.929687 7.070312c1.859376 1.859376 4.441407 2.929688 7.070313 2.929688zm0 0"/></svg>