<?xml version="1.0" encoding="iso-8859-1"?>
<!-- Generator: Adobe Illustrator 17.1.0, SVG Export Plug-In . SVG Version: 6.00 Build 0)  -->
<!DOCTYPE svg PUBLIC "-//W3C//DTD SVG 1.1//EN" "http://www.w3.org/Graphics/SVG/1.1/DTD/svg11.dtd">
<svg xmlns="http://www.w3.org/2000/svg" xmlns:xlink="http://www.w3.org/1999/xlink" version="1.1" id="Capa_1" x="0px" y="0px" viewBox="0 0 94.009 94.009" style="enable-background:new 0 0 94.009 94.009;" xml:space="preserve" width="512px" height="512px">
<g>
	<path d="M62.147,25.357l-3.781-2.653c0.024-0.44-0.044-0.88-0.229-1.292c-0.325-0.726-0.931-1.267-1.706-1.523l-1.259-0.417   c-0.142-0.047-0.289-0.08-0.437-0.106l0.511-1.182c0.324-0.75,0.322-1.562-0.003-2.288s-0.931-1.267-1.706-1.523l-1.259-0.417   c-0.32-0.106-0.66-0.16-1.009-0.16c-1.265,0-2.46,0.686-3.047,1.748l-0.017,0.03l-1.825-1.281c0.367-1.087,0.575-2.247,0.575-3.457   C46.957,4.861,42.095,0,36.12,0S25.284,4.861,25.284,10.836s4.861,10.836,10.836,10.836c3.325,0,6.303-1.508,8.292-3.874   l1.849,1.298l-1.901,3.442c-0.302,0.547-0.927,1.203-1.553,1.677H31.707c-1.654,0-3,1.346-3,3v30.125v0.503v31.167   c0,2.757,1.987,5,4.43,5s4.431-2.243,4.431-5V60.842h1.106v28.167c0,2.757,1.987,5,4.43,5s4.431-2.243,4.431-5V57.842v-0.503   V38.563l3.288-1.696c1.175-0.605,2.506-2.03,3.031-3.245l3.05-7.058l2.946,2.068c0.35,0.245,0.75,0.363,1.147,0.363   c0.63,0,1.25-0.296,1.639-0.851C63.27,27.239,63.052,25.992,62.147,25.357z" fill="#FC3"/>
	<path d="M66.265,7.812c-0.157,0-0.311,0.018-0.46,0.047V2.112c0-0.472-0.229-0.88-0.614-1.094   c-0.384-0.213-0.853-0.193-1.255,0.057l-6.108,3.804c-0.48,0.299-0.813,0.902-0.81,1.467l0.048,8.038   c-0.033,0.161-0.051,0.327-0.051,0.497c0,1.356,1.104,2.46,2.46,2.46s2.46-1.104,2.46-2.46s-1.104-2.46-2.46-2.46   c-0.144,0-0.283,0.019-0.421,0.043L59.02,6.493l4.785-2.98v6.566c0,0.023,0.011,0.042,0.013,0.064   c-0.002,0.044-0.013,0.085-0.013,0.129c0,1.356,1.104,2.46,2.46,2.46c1.356,0,2.459-1.104,2.459-2.46   C68.725,8.916,67.621,7.812,66.265,7.812z" fill="#FC3"/>
</g>
<g>
</g>
<g>
</g>
<g>
</g>
<g>
</g>
<g>
</g>
<g>
</g>
<g>
</g>
<g>
</g>
<g>
</g>
<g>
</g>
<g>
</g>
<g>
</g>
<g>
</g>
<g>
</g>
<g>
</g>
</svg>
