<?xml version="1.0" encoding="iso-8859-1"?>
<!-- Generator: Adobe Illustrator 16.0.0, SVG Export Plug-In . SVG Version: 6.00 Build 0)  -->
<!DOCTYPE svg PUBLIC "-//W3C//DTD SVG 1.1//EN" "http://www.w3.org/Graphics/SVG/1.1/DTD/svg11.dtd">
<svg xmlns="http://www.w3.org/2000/svg" xmlns:xlink="http://www.w3.org/1999/xlink" version="1.1" id="Capa_1" x="0px" y="0px" width="512px" height="512px" viewBox="0 0 397.365 397.365" style="enable-background:new 0 0 397.365 397.365;" xml:space="preserve">
<g>
	<g>
		<path d="M243.402,291.047l-120.527-83.972c-1.389-7.734-1.703-15.783-0.645-24.225c1.46-11.538,5.009-22.86,9.618-33.482    c7.654,13.451,19.063,27.822,34.552,32.927c-12.263,21.37-13.078,40.38,8.228,47.482c33.878,11.285,88.608-5.522,105.528-11.293    c-9.33-2.561-19.1-12.596-24.578-26.591c-3.867-9.836-4.845-19.67-3.338-27.515l-49.335,29.417c0,0,70.058-81.479,84.657-105.642    c10.312-17.051-37.55-13.958-66.651-10.662c2.023-2.331,3.896-4.867,5.566-7.616c14.042-23.179,8.921-51.966-11.425-64.301    c-20.35-12.325-48.236-3.53-62.274,19.657c-8.61,14.202-9.993,30.492-5.118,43.829c-15.655,17.288-50.429,60.544-56.655,109.844    c-7.42,58.784,31.238,100.229,64.79,133.623l-60.42,53.215l20.796,23.62l73.042-64.352c3.266-2.861,5.198-6.961,5.34-11.309    c0.14-4.34-1.527-8.54-4.601-11.614c-2.284-2.284-4.634-4.601-6.989-6.933c-7.931-7.851-16.134-15.974-23.856-24.485    l62.384,43.469l32.696,83.227l29.295-11.514l-34.437-87.658C247.915,295.311,245.955,292.827,243.402,291.047z M169.351,92.084    c13.232,5.512,28.661,3.198,41.282-5.408c54.12-5.156,46.968,11.07,8.965,39.132c-3.266,2.404-6.472,4.929-9.646,7.536    L168.65,92.894C168.88,92.629,169.121,92.353,169.351,92.084z M155.886,108.713l38.952,38.159    c-6.851,6.712-13.014,13.709-18.376,20.68c-12.9-4.921-27.319-27.218-33.035-40.381    C147.533,120.409,151.802,114.2,155.886,108.713z" fill="#FC3"/>
		<path d="M265.98,148.042c11.152-5.236,27.23,5.528,35.898,24.03c8.688,18.502,6.692,37.74-4.452,42.97    c-11.156,5.229-27.223-5.519-35.902-24.026C252.839,172.514,254.832,153.27,265.98,148.042z" fill="#FC3"/>
	</g>
</g>
<g>
</g>
<g>
</g>
<g>
</g>
<g>
</g>
<g>
</g>
<g>
</g>
<g>
</g>
<g>
</g>
<g>
</g>
<g>
</g>
<g>
</g>
<g>
</g>
<g>
</g>
<g>
</g>
<g>
</g>
</svg>
